<svg width="433.828" height="512.828" xmlns="http://www.w3.org/2000/svg">

 <g>
  <title>background</title>
  <rect fill="none" id="canvas_background" height="514.828" width="435.828" y="-1" x="-1"/>
 </g>
 <g>
  <title>Layer 1</title>
  <g fill="#e6007e" id="svg_1">
   <g transform="rotate(-90 218.41400146484384,256.4140014648438) " id="svg_2">
    <g id="svg_3">
     <path id="svg_4" d="m-4.895,473.415l-33.105,-45.076l234.096,-171.928l-234.096,-171.921l33.104,-45.077l264.785,194.459c7.174,5.269 11.411,13.638 11.411,22.539c0,8.9 -4.237,17.27 -11.411,22.538l-264.784,194.466z"/>
    </g>
    <g id="svg_5">
     <path id="svg_6" d="m198.635,473.415l-33.105,-45.076l234.094,-171.928l-234.094,-171.921l33.104,-45.077l264.783,194.459c7.174,5.268 11.411,13.637 11.411,22.538c0,8.899 -4.237,17.271 -11.411,22.538l-264.782,194.467z"/>
    </g>
   </g>
  </g>
  <g id="svg_7"/>
  <g id="svg_8"/>
  <g id="svg_9"/>
  <g id="svg_10"/>
  <g id="svg_11"/>
  <g id="svg_12"/>
  <g id="svg_13"/>
  <g id="svg_14"/>
  <g id="svg_15"/>
  <g id="svg_16"/>
  <g id="svg_17"/>
  <g id="svg_18"/>
  <g id="svg_19"/>
  <g id="svg_20"/>
  <g id="svg_21"/>
 </g>
</svg>