<svg width="98" height="99" viewBox="0 0 98 99" fill="none" xmlns="http://www.w3.org/2000/svg">
<path d="M48.5592 98.7046C74.0919 98.7046 94.7902 78.0456 94.7902 52.5616C94.7902 27.0775 74.0919 6.41856 48.5592 6.41856C23.0265 6.41856 2.32812 27.0775 2.32812 52.5616C2.32812 78.0456 23.0265 98.7046 48.5592 98.7046Z" fill="white"/>
<g opacity="0.2">
<g opacity="0.2">
<path opacity="0.2" d="M79.7057 18.4636C71.4886 10.9817 60.5576 6.41856 48.5588 6.41856C38.3742 6.41856 28.9614 9.70797 21.3218 15.2768V74.7608C21.3218 77.3258 23.4126 79.4122 25.982 79.4122H75.0454C75.9305 79.4122 76.7587 79.1646 77.4644 78.7354H77.6315L79.3955 77.252L79.3806 76.4642C79.5897 75.9363 79.7057 75.3621 79.7057 74.7612V18.4636Z" fill="#6D4C41"/>
</g>
</g>
<path d="M73.0904 76.7516H24.0274C21.8461 76.7516 20.0781 74.9866 20.0781 72.8098V4.65137C20.0781 2.47415 21.8465 0.709579 24.0274 0.709579H73.0909C75.2722 0.709579 77.0402 2.47459 77.0402 4.65137V72.8093C77.0402 74.9866 75.2718 76.7516 73.0904 76.7516Z" fill="white"/>
<path d="M73.0904 77.4612H24.0274C21.4576 77.4612 19.3672 75.3743 19.3672 72.8098V4.65137C19.3672 2.08639 21.458 0 24.0274 0H73.0909C75.6607 0 77.7511 2.08683 77.7511 4.65137V72.8093C77.7511 75.3743 75.6603 77.4612 73.0904 77.4612ZM24.0274 1.41917C22.2416 1.41917 20.7891 2.86934 20.7891 4.65137V72.8093C20.7891 74.5918 22.242 76.0416 24.0274 76.0416H73.0909C74.8767 76.0416 76.3292 74.5914 76.3292 72.8093V4.65137C76.3292 2.8689 74.8763 1.41917 73.0909 1.41917H24.0274Z" fill="#6D4C41"/>
<path d="M73.0904 1.41916H24.0274C22.2416 1.41916 20.7891 2.86933 20.7891 4.65137V54.8226H76.3292V4.65137C76.3292 2.86933 74.8763 1.41916 73.0904 1.41916Z" fill="#29B6F6"/>
<g opacity="0.5">
<path opacity="0.5" d="M76.8188 53.9475L24.0441 52.9188C23.026 52.8991 22.2109 52.0694 22.2109 51.0529V5.71596C22.2109 3.93087 23.6608 2.48375 25.4493 2.48375H74.5127C74.9192 2.48375 75.3068 2.56192 75.6656 2.69903C75.0736 1.92307 74.1413 1.41916 73.0909 1.41916H24.0274C22.2389 1.41916 20.7891 2.86627 20.7891 4.65137V54.8226H22.2109L77.3521 55.3671L76.8188 53.9475Z" fill="white"/>
</g>
<path d="M48.7572 48.7853C60.0167 48.7853 69.1443 39.6751 69.1443 28.437C69.1443 17.199 60.0167 8.08882 48.7572 8.08882C37.4977 8.08882 28.3701 17.199 28.3701 28.437C28.3701 39.6751 37.4977 48.7853 48.7572 48.7853Z" fill="#FFCA28"/>
<path d="M48.7572 49.4058C37.1727 49.4058 27.748 39.9991 27.748 28.4366C27.748 16.8741 37.1727 7.46744 48.7572 7.46744C60.3418 7.46744 69.7664 16.8741 69.7664 28.4366C69.7664 39.9991 60.3414 49.4058 48.7572 49.4058ZM48.7572 8.70975C37.8587 8.70975 28.9923 17.5592 28.9923 28.437C28.9923 39.3148 37.8587 48.1643 48.7572 48.1643C59.6558 48.1643 68.5222 39.3148 68.5222 28.437C68.5222 17.5592 59.6558 8.70975 48.7572 8.70975Z" fill="#6D4C41"/>
<g opacity="0.2">
<g opacity="0.2">
<path opacity="0.2" d="M59.9887 11.4542C64.1874 15.1811 66.8334 20.6133 66.8334 26.6629C66.8334 37.9009 57.7058 47.0111 46.4463 47.0111C42.2958 47.0111 38.4357 45.7718 35.2148 43.6457C38.8159 46.8421 43.5588 48.7853 48.7568 48.7853C60.0163 48.7853 69.1438 39.6751 69.1438 28.437C69.1443 21.3416 65.5047 15.096 59.9887 11.4542Z" fill="#6D4C41"/>
</g>
</g>
<g opacity="0.5">
<path opacity="0.5" d="M29.8807 28.7916C29.8807 17.9138 38.7471 9.06432 49.6456 9.06432C52.0615 9.06432 54.3768 9.50011 56.5183 10.2953C54.1344 9.27523 51.5107 8.70975 48.7566 8.70975C37.8581 8.70975 28.9917 17.5592 28.9917 28.437C28.9917 36.9036 34.3638 44.1409 41.884 46.9334C34.8332 43.9164 29.8807 36.9206 29.8807 28.7916Z" fill="white"/>
</g>
<path d="M61.7297 24.3752C61.7297 24.3752 63.2014 24.6345 63.7741 26.545C64.0873 27.5908 63.9631 28.7143 63.5155 29.7104C62.9219 31.0322 61.6711 32.7644 59.1948 32.7644C59.1948 32.7644 59.1948 26.9048 59.1948 26.3725C59.1948 25.8402 61.7297 24.3752 61.7297 24.3752Z" fill="#FFE0B2"/>
<path d="M59.1944 33.2967C58.9 33.2967 58.6611 33.0583 58.6611 32.7644V26.3725C58.6611 26.1428 58.6611 25.5332 61.4624 23.9145C61.5709 23.8516 61.6982 23.8289 61.8225 23.8507C61.8955 23.8638 63.6258 24.1922 64.2847 26.3926C64.6216 27.517 64.5209 28.7724 64.0016 29.9283C63.0256 32.1007 61.3185 33.2967 59.1944 33.2967ZM59.7278 26.4533V32.2007C61.535 31.978 62.5155 30.6352 63.0287 29.4929C63.4434 28.5702 63.5265 27.5777 63.2632 26.6978C62.9022 25.4922 62.1423 25.0786 61.8015 24.9503C60.8158 25.5354 59.9172 26.186 59.7278 26.4533Z" fill="#6D4C41"/>
<path d="M35.1783 24.3752C35.1783 24.3752 33.7065 24.6345 33.1338 26.545C32.8206 27.5908 32.9448 28.7143 33.3924 29.7104C33.9861 31.0322 35.2369 32.7644 37.7132 32.7644C37.7132 32.7644 37.7132 26.9048 37.7132 26.3725C37.7132 25.8402 35.1783 24.3752 35.1783 24.3752Z" fill="#FFE0B2"/>
<path d="M37.7137 33.2967C35.59 33.2967 33.8825 32.1002 32.9064 29.9283C32.3871 28.7724 32.2865 27.517 32.6234 26.3926C33.2827 24.1927 35.0125 23.8638 35.0856 23.8507C35.2094 23.8289 35.3367 23.8516 35.4457 23.9145C38.247 25.5332 38.247 26.1428 38.247 26.3725V32.7644C38.2465 33.0587 38.0081 33.2967 37.7137 33.2967ZM35.1066 24.9503C34.7658 25.0786 34.0063 25.4917 33.6449 26.6978C33.3811 27.5777 33.4647 28.5702 33.8794 29.4929C34.3926 30.6352 35.373 31.978 37.1804 32.2007V26.4533C36.9909 26.186 36.0923 25.5354 35.1066 24.9503Z" fill="#6D4C41"/>
<path d="M48.3086 42.8754C48.2827 42.8754 48.2596 42.8754 48.2333 42.8754C48.0574 42.8754 47.805 42.8571 47.7739 42.8545C37.8164 42.3082 35.7584 33.0945 35.7387 33.0015C35.7313 32.9653 35.7273 32.9286 35.7273 32.8919V25.2599L35.5611 15.1475C35.5593 15.0323 35.5948 14.92 35.6622 14.8266L39.153 10.015C39.2532 9.87697 39.4137 9.79488 39.5848 9.79488H56.9562C57.1272 9.79488 57.2878 9.87697 57.388 10.015L60.8788 14.8266C60.9466 14.9196 60.9821 15.0323 60.9799 15.1475L60.8136 25.2686V32.8919C60.8136 32.9286 60.8097 32.9653 60.8023 33.0015C60.7826 33.0945 58.7246 42.3082 48.7566 42.8549C48.736 42.8571 48.4844 42.8754 48.3086 42.8754ZM48.2709 41.8104C48.2841 41.8104 48.2963 41.8108 48.312 41.8108C48.4109 41.8108 48.5899 41.8004 48.6883 41.7929C57.563 41.3056 59.5681 33.6107 59.7483 32.833V25.2599L59.9119 15.3074L56.6849 10.8595H39.8582L36.6312 15.3074L36.7944 25.2511V32.8334C36.9733 33.6072 38.9771 41.3061 47.8439 41.7925C47.9629 41.8012 48.1681 41.8135 48.2574 41.8108C48.2613 41.8108 48.2661 41.8104 48.2709 41.8104Z" fill="#6D4C41"/>
<path d="M36.7746 32.8338C36.8537 33.1622 37.3735 35.1399 38.8479 37.1385C40.9798 40.0292 44.006 41.6012 47.8424 41.8121C47.961 41.8209 48.1653 41.8322 48.2576 41.8305C48.262 41.8305 48.2668 41.8305 48.2712 41.8305C48.2756 41.8305 48.2804 41.8305 48.2848 41.8305C48.3749 41.8327 48.5814 41.8209 48.6899 41.813C52.5364 41.6017 55.5626 40.0292 57.6945 37.1389C59.168 35.1416 59.6882 33.1644 59.7678 32.8343V25.2599L59.9314 15.3012L59.4384 14.6218C57.0081 14.2519 52.371 13.7646 52.371 13.7646L39.3072 13.1786L36.6201 15.8606L36.7746 25.2516V32.8338Z" fill="#FFE0B2"/>
<g opacity="0.2">
<g opacity="0.2">
<path opacity="0.2" d="M46.2868 23.5539C44.8002 22.6356 42.628 22.6465 41.7622 22.6946C41.3172 22.719 40.9204 22.836 40.5822 23.0426C39.4023 23.7622 39.6189 24.9185 39.6285 24.9674C39.6556 25.1015 39.7549 25.2097 39.8871 25.2477C39.9207 25.2573 39.9544 25.2621 39.9886 25.2621C40.0879 25.2621 40.185 25.2215 40.2554 25.1473C41.3186 24.0238 44.5561 24.8342 45.7141 25.2412C45.813 25.2757 45.9224 25.267 46.0143 25.2159C46.443 24.9783 46.5778 24.6783 46.6154 24.4683C46.6959 24.0194 46.4058 23.6661 46.3726 23.6273C46.3476 23.5985 46.3188 23.5736 46.2868 23.5539Z" fill="#6D4C41"/>
</g>
<g opacity="0.2">
<path opacity="0.2" d="M56.5829 23.0416C56.2447 22.835 55.8474 22.718 55.4029 22.6936C54.538 22.646 52.3649 22.6346 50.8783 23.5529C50.8464 23.5726 50.8175 23.5975 50.793 23.6259C50.7598 23.6647 50.4697 24.018 50.5502 24.4669C50.5878 24.6765 50.7226 24.9765 51.1513 25.2144C51.2432 25.2655 51.3521 25.2743 51.4514 25.2398C52.6086 24.8319 55.8452 24.0202 56.9101 25.1459C56.9805 25.2201 57.0772 25.2607 57.177 25.2607C57.2107 25.2607 57.2448 25.2559 57.2785 25.2463C57.4102 25.2083 57.5099 25.1005 57.5371 24.966C57.5462 24.9175 57.7628 23.7612 56.5829 23.0416Z" fill="#6D4C41"/>
</g>
</g>
<g opacity="0.5">
<path opacity="0.5" d="M48.5761 41.8122C44.7397 41.6017 41.7135 40.0292 39.5815 37.1385C39.5203 37.0551 39.4603 36.9721 39.4021 36.8887C38.1465 35.0949 37.5082 32.9421 37.5082 30.7536V25.2516L37.3538 15.8606L40.0089 13.2105L39.3068 13.179L36.6196 15.8611L36.7741 25.252V32.8343C36.8533 33.1627 37.373 35.1403 38.8474 37.139C40.9793 40.0297 44.0055 41.6017 47.842 41.8126C47.9605 41.8213 48.1648 41.8327 48.2572 41.8309C48.2615 41.8309 48.2663 41.8309 48.2707 41.8309C48.2751 41.8309 48.2799 41.8309 48.2843 41.8309C48.3617 41.8327 48.5245 41.8244 48.6378 41.817C48.6163 41.8148 48.5949 41.8135 48.5761 41.8122Z" fill="white"/>
</g>
<path d="M40.5386 27.824C40.5386 27.824 43.1242 25.3948 46.3709 28.0322C46.3709 28.0322 46.1963 26.4196 44.2101 25.8568C43.269 25.59 42.2614 25.7524 41.47 26.3978C41.0741 26.7209 40.7105 27.1794 40.5386 27.824Z" fill="#6D4C41"/>
<path d="M56.7053 27.824C56.7053 27.824 54.1197 25.3948 50.873 28.0322C50.873 28.0322 51.0476 26.4196 53.0338 25.8568C53.9749 25.59 54.9824 25.7524 55.7739 26.3978C56.1702 26.7209 56.5334 27.1794 56.7053 27.824Z" fill="#6D4C41"/>
<path d="M45.8361 24.3084C45.8361 24.3084 41.4506 22.7634 39.9885 24.3084C39.9885 24.3084 39.799 23.3625 40.7738 22.7678C41.077 22.5827 41.4278 22.4927 41.7827 22.4731C42.6555 22.425 44.7052 22.4202 46.0938 23.2783C46.0938 23.2787 46.61 23.8796 45.8361 24.3084Z" fill="#AE7C5B"/>
<path d="M39.9884 24.6634C39.9555 24.6634 39.9227 24.659 39.8904 24.6498C39.7626 24.6131 39.6659 24.5083 39.6401 24.3782C39.6305 24.3298 39.4152 23.1809 40.5886 22.4656C40.9255 22.2604 41.3205 22.1438 41.7633 22.1193C42.6274 22.0718 44.7969 22.0604 46.2813 22.977C46.3124 22.9962 46.3404 23.0202 46.364 23.0477C46.3968 23.0861 46.6838 23.4359 46.6042 23.8791C46.567 24.0865 46.4336 24.383 46.0088 24.6184C45.92 24.6677 45.8141 24.6765 45.7178 24.6428C44.558 24.235 41.3144 23.4237 40.2469 24.552C40.1787 24.6241 40.0846 24.6634 39.9884 24.6634ZM42.171 23.2721C43.6673 23.2721 45.265 23.7481 45.7857 23.9171C45.8417 23.8721 45.892 23.8167 45.9038 23.756C45.9182 23.6822 45.8793 23.5966 45.8478 23.5442C44.5353 22.7695 42.5875 22.7844 41.8022 22.8272C41.478 22.8451 41.1945 22.9267 40.9592 23.0704C40.7142 23.2202 40.5624 23.3948 40.4692 23.5634C40.9657 23.3516 41.5603 23.2721 42.171 23.2721Z" fill="#6D4C41"/>
<g opacity="0.5">
<path opacity="0.5" d="M40.9648 23.2272C41.1984 23.0848 41.4806 23.0032 41.8026 22.9857C42.5862 22.9429 44.5291 22.9281 45.839 23.6992C45.8526 23.7219 45.8692 23.7534 45.8806 23.7883C45.8858 23.7765 45.8906 23.7643 45.8928 23.752C45.9055 23.68 45.8661 23.5983 45.839 23.5529C44.5296 22.7813 42.5866 22.7962 41.8026 22.8394C41.4802 22.8573 41.1984 22.9385 40.9648 23.0809C40.7369 23.2202 40.5907 23.3822 40.4976 23.5398C40.5479 23.5189 40.5999 23.5005 40.652 23.4822C40.7342 23.3931 40.8353 23.3062 40.9648 23.2272Z" fill="white"/>
</g>
<path d="M51.3298 24.3084C51.3298 24.3084 55.7153 22.7634 57.1774 24.3084C57.1774 24.3084 57.3669 23.3625 56.3921 22.7678C56.0889 22.5827 55.7381 22.4927 55.3832 22.4731C54.5104 22.425 52.4607 22.4202 51.0721 23.2783C51.0717 23.2787 50.5559 23.8796 51.3298 24.3084Z" fill="#AE7C5B"/>
<path d="M57.1767 24.6634C57.0804 24.6634 56.9864 24.6241 56.9181 24.552C55.8506 23.4237 52.607 24.235 51.4472 24.6429C51.3509 24.6765 51.245 24.6677 51.1562 24.6184C50.7314 24.383 50.598 24.0861 50.5608 23.8791C50.4812 23.4355 50.7682 23.0861 50.801 23.0477C50.8246 23.0202 50.8526 22.9962 50.8836 22.977C52.3681 22.06 54.5381 22.0718 55.4017 22.1194C55.8445 22.1438 56.2396 22.2604 56.5764 22.4656C57.7498 23.1813 57.5346 24.3298 57.5249 24.3787C57.4987 24.5088 57.4024 24.6136 57.2747 24.6503C57.2427 24.659 57.2095 24.6634 57.1767 24.6634ZM51.3172 23.5446C51.2866 23.5953 51.2472 23.6818 51.2617 23.756C51.2735 23.8167 51.3238 23.8721 51.3798 23.9171C52.1126 23.6787 54.9809 22.8324 56.695 23.563C56.6022 23.3944 56.4509 23.2193 56.2067 23.0709C55.9714 22.9272 55.6874 22.8455 55.3637 22.8276C54.5779 22.7844 52.6297 22.7696 51.3172 23.5446Z" fill="#6D4C41"/>
<g opacity="0.5">
<path opacity="0.5" d="M51.2847 23.7883C51.2961 23.7547 51.3114 23.7232 51.3254 23.6997C52.6353 22.9276 54.5791 22.942 55.3627 22.9853C55.6851 23.0032 55.9669 23.0844 56.2005 23.2268C56.3296 23.3058 56.4306 23.3918 56.5124 23.4805C56.5654 23.4988 56.6174 23.518 56.6682 23.539C56.575 23.3809 56.4289 23.2189 56.2005 23.08C55.9669 22.9372 55.6847 22.856 55.3627 22.8386C54.5791 22.7953 52.6353 22.7809 51.3254 23.5529C51.2961 23.6018 51.2594 23.6839 51.2729 23.7538C51.2751 23.766 51.2799 23.777 51.2847 23.7883Z" fill="white"/>
</g>
<path d="M53.0264 33.3098C53.0264 33.3098 49.1668 34.5513 43.8845 33.3989C43.8845 33.3989 42.8423 36.6342 47.0611 37.9878C47.9029 38.2581 48.8531 38.3088 49.7198 38.1049C51.3066 37.7315 53.5357 36.9023 53.0264 33.3098Z" fill="#8D6E63"/>
<path d="M48.6178 38.6738C48.0478 38.6738 47.4707 38.5856 46.9252 38.4101C42.3366 36.9376 43.4496 33.2998 43.4615 33.2631C43.5315 33.0452 43.7563 32.9172 43.9795 32.9657C49.0702 34.0762 52.8533 32.8998 52.8909 32.8876C53.0156 32.8478 53.1517 32.8648 53.2628 32.9343C53.3735 33.0037 53.4483 33.1186 53.4666 33.2478C54.0113 37.0909 51.6475 38.1066 49.8218 38.5367C49.4329 38.6284 49.0269 38.6738 48.6178 38.6738ZM44.2319 33.9242C44.137 34.7412 44.2678 36.6259 47.1973 37.566C47.9826 37.8175 48.8423 37.8564 49.618 37.6734C51.2332 37.2931 52.8301 36.5363 52.6411 33.8735C51.4406 34.1631 48.2923 34.7237 44.2319 33.9242Z" fill="#6D4C41"/>
<path d="M52.3711 36.6739C51.6724 37.5512 50.5983 37.8983 49.7198 38.1053C48.8531 38.3092 47.9029 38.2586 47.0611 37.9883C46.3498 37.7599 45.788 37.4778 45.3457 37.1673C47.9265 35.0705 51.1964 36.1674 52.3711 36.6739Z" fill="#FF5722"/>
<path d="M48.6178 38.6738C48.0473 38.6738 47.4706 38.5856 46.9251 38.4101C46.2146 38.1822 45.5973 37.8861 45.0898 37.5293C44.976 37.4494 44.9064 37.321 44.9016 37.1822C44.8968 37.0433 44.9572 36.9106 45.0653 36.8228C47.8101 34.5927 51.2117 35.691 52.547 36.2665C52.6738 36.3211 52.7683 36.432 52.802 36.5656C52.8357 36.6992 52.8051 36.8416 52.7189 36.9494C51.9327 37.9363 50.7576 38.3162 49.8218 38.5363C49.4328 38.6284 49.0268 38.6738 48.6178 38.6738ZM46.1516 37.1363C46.4648 37.2992 46.8144 37.4429 47.1972 37.566C47.9825 37.818 48.8422 37.8564 49.6179 37.6734C50.2413 37.5267 50.9851 37.3023 51.5744 36.8403C50.2724 36.3888 48.0683 35.9477 46.1516 37.1363Z" fill="#6D4C41"/>
<g opacity="0.5">
<path opacity="0.5" d="M50.0784 36.4625C48.8849 36.2739 47.4525 36.3294 46.1519 37.1363C46.4332 37.2826 46.7451 37.4123 47.0829 37.5267C46.8781 37.411 46.8781 37.104 47.0964 36.9944C48.0895 36.497 49.1339 36.3901 50.0784 36.4625Z" fill="white"/>
</g>
<g opacity="0.2">
<g opacity="0.2">
<path opacity="0.2" d="M49.5082 35.8132C49.5082 35.8132 50.5359 37.8643 47.0127 37.718C47.0127 37.718 50.609 38.8166 52.0768 36.6193L49.5082 35.8132Z" fill="#6D4C41"/>
</g>
</g>
<path d="M47.9614 29.2824C47.9614 29.2824 47.9115 29.813 47.6709 30.1501C47.5086 30.3772 47.4228 30.6527 47.4504 30.9304C47.4745 31.1776 47.5782 31.4383 47.8691 31.588C47.8691 31.588 48.9427 32.2002 49.7722 31.4758C49.8868 31.3758 49.9695 31.2418 49.9966 31.0924C50.0277 30.9217 50.0268 30.6815 49.8676 30.4584C49.8676 30.4584 49.8676 31.1269 49.1859 31.1846C49.1859 31.1846 48.6067 31.2623 48.2545 31.0479C48.0896 30.9475 48.0065 30.7536 48.0314 30.5623C48.0725 30.2488 48.1368 29.5623 47.9614 29.2824Z" fill="#6D4C41"/>
<g opacity="0.2">
<g opacity="0.2">
<path opacity="0.2" d="M64.04 27.0231C64.04 27.0231 62.7188 30.2462 61.2509 28.4882L60.3921 30.4562L60.7159 32.3706C60.7159 32.3706 64.0908 30.4885 64.04 27.0231Z" fill="#6D4C41"/>
</g>
</g>
<path d="M36.4747 32.4461C36.637 32.8365 36.5468 26.5843 36.497 23.7018C36.4812 22.7918 36.8159 21.9115 37.4319 21.2408L39.4925 18.9972V21.1906L45.5357 17.9007L43.5862 21.8591C43.5862 21.8591 52.128 20.6421 54.875 14.8851C54.875 14.8851 56.7979 19.8199 59.5445 19.8199L60.1688 32.0238L63.3901 20.0941C63.3901 20.0941 65.3129 10.2246 56.7979 8.57963C56.7979 8.57963 54.0565 4.67103 48.9049 4.44396C47.5106 4.38239 46.1233 4.65836 44.8318 5.18673C43.4449 5.75352 40.6948 6.66091 37.2958 6.66091C37.2958 6.66091 33.4502 10.7734 34.5492 13.5148C34.5488 13.514 31.8052 21.2054 36.4747 32.4461Z" fill="#FF7043"/>
<g opacity="0.5">
<path opacity="0.5" d="M55.0967 14.5139C55.0967 14.5139 58.0455 19.1417 59.8655 19.5308C59.865 19.5308 55.9341 19.3378 55.0967 14.5139Z" fill="white"/>
</g>
<g opacity="0.5">
<path opacity="0.5" d="M45.3015 19.1448L45.0438 20.5596C45.0438 20.5596 52.1322 18.8871 54.5809 14.5139C54.5809 14.5139 52.97 19.209 46.9124 20.8814L43.8188 21.7914L45.3015 19.1448Z" fill="white"/>
</g>
<g opacity="0.5">
<path opacity="0.5" d="M48.8847 4.89329C47.5985 4.83565 46.2925 5.07538 45.0023 5.60287C44.984 5.6103 44.9647 5.61816 44.9463 5.62558C44.4953 5.39721 43.6806 5.38148 42.8109 5.62689C41.9219 5.87754 41.225 6.33036 40.9734 6.76965C39.9299 6.96178 38.7592 7.09627 37.4983 7.10937C36.8618 7.83468 34.0946 11.1682 34.9678 13.3467C35.0085 13.4485 35.0107 13.5616 34.9739 13.6651C34.9687 13.6795 34.8694 13.9716 34.7434 14.5109C34.4726 15.2322 34.4118 15.8086 34.4118 15.865C34.4118 15.8964 34.4354 15.9283 34.4704 15.958C34.0574 18.7225 33.8583 23.8101 36.1163 30.2497C36.1167 29.9807 36.1163 29.6829 36.1149 29.3562C33.6614 21.3338 35.0015 15.6694 35.3563 14.4336C36.118 12.7035 37.1488 11.8027 37.1488 11.8027C36.2987 12.1834 35.7089 12.7825 35.3003 13.4052C34.9206 11.2442 37.3653 8.3006 37.9586 7.6242C39.0278 7.61285 40.0323 7.5146 40.9498 7.36788C41.2337 7.80891 42.2575 7.92201 43.3713 7.60761C44.4555 7.30195 45.2548 6.69585 45.3068 6.18015C45.3606 6.15875 45.4127 6.13779 45.4626 6.11727C46.7532 5.58978 48.0591 5.35005 49.345 5.40769C52.8371 5.56183 55.1935 7.51416 56.2522 8.61282C55.5877 7.80629 53.0414 5.07669 48.8847 4.89329Z" fill="white"/>
</g>
<path d="M36.4868 32.9963C36.2693 32.9963 36.0712 32.8644 35.9819 32.65C31.6301 22.1744 33.5844 14.7986 33.9843 13.5223C33.0025 10.518 36.7423 6.47141 36.9055 6.29718C37.0061 6.18932 37.1474 6.12819 37.2953 6.12819C40.6238 6.12819 43.3192 5.22953 44.6291 4.69374C46.0523 4.1121 47.4982 3.84835 48.928 3.9121C53.7059 4.12258 56.4783 7.29889 57.1026 8.09843C60.6936 8.86041 63.0102 11.1874 63.8078 14.8406C64.408 17.5889 63.9338 20.0906 63.9132 20.1958C63.911 20.2081 63.908 20.2207 63.9045 20.2325L60.6831 32.1623C60.6149 32.4151 60.373 32.581 60.1118 32.5531C59.851 32.5256 59.6493 32.3125 59.6358 32.0509L59.0346 20.3059C57.0239 19.9395 55.5316 17.4868 54.8263 16.072C51.5897 21.1997 44.0008 22.3377 43.6605 22.3862C43.4645 22.4145 43.2698 22.3316 43.1538 22.1718C43.0379 22.0124 43.0195 21.8015 43.107 21.6246L44.3154 19.171L39.7475 21.6578C39.5825 21.7478 39.3817 21.7443 39.2198 21.6482C39.058 21.5521 38.9587 21.3783 38.9587 21.1906V20.3653L37.8247 21.6002C37.2988 22.1731 37.0162 22.9158 37.0297 23.6927C37.1881 32.8618 37.1772 32.8644 36.5979 32.9845C36.5607 32.9924 36.5235 32.9963 36.4868 32.9963ZM36.9667 32.2409C36.9672 32.2413 36.9672 32.2417 36.9672 32.2422C36.9672 32.2417 36.9667 32.2413 36.9667 32.2409ZM37.5328 7.1906C36.4566 8.40366 34.2848 11.4232 35.0439 13.3162C35.092 13.4367 35.0947 13.5703 35.0513 13.6921C35.0268 13.7607 32.8288 20.2103 36.0344 29.7562C36.0313 28.3851 36.0112 26.4135 35.9648 23.7106C35.9469 22.6604 36.3288 21.6552 37.0402 20.881L39.1004 18.6374C39.2492 18.4758 39.4815 18.4217 39.6867 18.5011C39.8914 18.5806 40.0266 18.7775 40.0266 18.9972V20.2941L45.281 17.4335C45.4848 17.3226 45.7373 17.3562 45.9053 17.5165C46.0733 17.6767 46.1175 17.9274 46.0146 18.1352L44.5407 21.1286C46.842 20.6019 52.3571 18.9256 54.3941 14.6559C54.4855 14.4642 54.6833 14.3463 54.895 14.3528C55.1077 14.3607 55.2953 14.4938 55.3723 14.6912C55.872 15.9693 57.5953 19.2871 59.5452 19.2871C59.8292 19.2871 60.0632 19.5094 60.0776 19.7919L60.5305 28.6414L62.8706 19.9744C62.9791 19.3954 64.4872 10.6062 56.6971 9.10145C56.5615 9.07525 56.4412 8.99709 56.3615 8.88399C56.3362 8.84775 53.6954 5.18673 48.882 4.97451C47.6085 4.91906 46.3135 5.15486 45.0342 5.67798C43.6819 6.23124 40.9344 7.14955 37.5328 7.1906Z" fill="#6D4C41"/>
<g opacity="0.5">
<path opacity="0.5" d="M55.2671 10.2324C55.2671 10.2324 56.5035 10.1625 57.2494 9.55209C58.9167 9.88701 60.262 10.5713 61.2788 11.5974C60.2082 10.2647 58.6822 9.40231 56.7126 9.02153C56.6658 9.01236 56.622 8.99446 56.5809 8.97176C56.6133 9.00931 56.6421 9.04337 56.6697 9.07612L56.6561 9.0735L55.2671 10.2324Z" fill="white"/>
</g>
<path d="M33.8155 14.3218C34.06 13.9838 34.3072 13.7044 34.5763 13.4201C34.8445 13.1415 35.1258 12.8764 35.4325 12.6406C35.7396 12.4066 36.0585 12.1869 36.4107 12.0289C36.7607 11.8699 37.133 11.7638 37.5045 11.7485C37.1457 11.8524 36.8303 12.0363 36.5498 12.2559C36.2681 12.4751 36.0292 12.7446 35.807 13.0197C35.5852 13.2965 35.3913 13.5965 35.2137 13.9026C35.04 14.2056 34.8703 14.5345 34.75 14.8353C34.6397 15.1104 34.3274 15.244 34.0517 15.134C33.7761 15.024 33.6422 14.7117 33.7525 14.4371C33.7687 14.396 33.7914 14.3563 33.8155 14.3218Z" fill="#6D4C41"/>
<path d="M56.7078 8.78967C56.7078 8.78967 56.5144 9.36869 55.2256 10.2691L56.7078 8.78967Z" fill="#FF7043"/>
<path d="M57.2142 8.95824C57.1796 9.03684 57.166 9.04557 57.1433 9.08138C57.1236 9.1067 57.103 9.13509 57.0838 9.15648C57.0444 9.20321 57.0046 9.24294 56.9652 9.28224C56.8856 9.35691 56.8064 9.42503 56.7255 9.48573C56.564 9.608 56.4008 9.7128 56.2346 9.80493C55.9038 9.99226 55.5661 10.139 55.2266 10.2691C55.4637 9.99401 55.6864 9.70974 55.871 9.41586C55.9646 9.27002 56.0464 9.12024 56.1125 8.97352C56.1462 8.90016 56.1725 8.82724 56.1943 8.75824C56.2031 8.72418 56.2127 8.69056 56.2166 8.66043C56.2201 8.64427 56.2188 8.63292 56.2201 8.61938C56.2166 8.61545 56.2223 8.58445 56.2031 8.62156C56.2963 8.34297 56.5981 8.19188 56.8777 8.28489C57.1564 8.3779 57.3073 8.67921 57.2142 8.95824Z" fill="#6D4C41"/>
<g opacity="0.2">
<g opacity="0.2">
<path opacity="0.2" d="M54.4491 6.37491C54.4491 6.37491 55.7406 14.6428 45.6882 18.2444L43.5615 21.5246C43.5615 21.5246 51.4234 20.4954 54.5165 15.093C54.5165 15.093 57.1498 20.2849 59.6353 20.0688L59.7009 21.7722C59.7009 21.7722 62.3136 23.0041 62.185 24.5477C62.185 24.5477 67.1467 11.2341 56.8366 8.53248L54.4491 6.37491Z" fill="#6D4C41"/>
</g>
</g>
<path d="M45.2569 17.447C45.2263 17.4645 45.2341 17.4623 45.228 17.4675C45.2232 17.4723 45.225 17.4728 45.2245 17.4745C45.2241 17.4785 45.225 17.4811 45.2289 17.4815C45.2337 17.485 45.2429 17.485 45.2521 17.4846C45.2709 17.4837 45.2932 17.4793 45.3164 17.4728C45.3628 17.461 45.4135 17.4413 45.4643 17.4208C45.5662 17.378 45.6708 17.3256 45.7753 17.2697C45.984 17.1566 46.1918 17.0278 46.3979 16.8938C46.3362 17.1313 46.2693 17.3693 46.1861 17.609C46.1437 17.7291 46.0982 17.8496 46.0422 17.9728C46.0133 18.0343 45.9836 18.0963 45.9451 18.1614C45.9267 18.1937 45.9053 18.2269 45.8795 18.2618C45.8663 18.2793 45.8528 18.2972 45.8344 18.3173C45.827 18.3265 45.816 18.3374 45.8033 18.3492C45.7968 18.3548 45.7928 18.3596 45.7819 18.3679C45.7696 18.3767 45.7714 18.3784 45.7342 18.3994C45.4708 18.5308 45.1506 18.4243 45.0189 18.1614C44.8872 17.8985 44.9935 17.5785 45.2569 17.447Z" fill="#6D4C41"/>
<path d="M76.819 55.5322H20.8325C20.4401 55.5322 20.1216 55.2143 20.1216 54.8226C20.1216 54.4309 20.4401 54.113 20.8325 54.113H76.819C77.2114 54.113 77.5299 54.4309 77.5299 54.8226C77.5299 55.2143 77.2114 55.5322 76.819 55.5322Z" fill="#6D4C41"/>
<path d="M67.1274 62.6874H28.5938C28.2013 62.6874 27.8828 62.3695 27.8828 61.9778C27.8828 61.5861 28.2013 61.2682 28.5938 61.2682H67.1274C67.5199 61.2682 67.8384 61.5861 67.8384 61.9778C67.8384 62.3695 67.5199 62.6874 67.1274 62.6874Z" fill="#6D4C41"/>
<path d="M49.6528 69.1719H28.5937C28.2013 69.1719 27.8828 68.854 27.8828 68.4623C27.8828 68.0706 28.2013 67.7527 28.5937 67.7527H49.6528C50.0452 67.7527 50.3637 68.0706 50.3637 68.4623C50.3637 68.854 50.0452 69.1719 49.6528 69.1719Z" fill="#6D4C41"/>
<g opacity="0.2">
<g opacity="0.2">
<path opacity="0.2" d="M76.9352 48.4486C76.9352 48.4486 79.1206 76.3363 41.6929 76.3363L43.2001 76.7843H75.6766L77.4405 75.301L76.9352 48.4486Z" fill="#6D4C41"/>
</g>
</g>
<path d="M8.67967 90.7546C9.22332 90.7546 9.66404 90.3147 9.66404 89.7721C9.66404 89.2295 9.22332 88.7896 8.67967 88.7896C8.13603 88.7896 7.69531 89.2295 7.69531 89.7721C7.69531 90.3147 8.13603 90.7546 8.67967 90.7546Z" fill="white"/>
<path d="M89.5553 87.7626C90.1821 87.7626 90.6902 87.2555 90.6902 86.6299C90.6902 86.0043 90.1821 85.4972 89.5553 85.4972C88.9285 85.4972 88.4204 86.0043 88.4204 86.6299C88.4204 87.2555 88.9285 87.7626 89.5553 87.7626Z" fill="white"/>
<path d="M97.0165 27.3078C97.5396 27.3078 97.9637 26.8846 97.9637 26.3624C97.9637 25.8403 97.5396 25.4171 97.0165 25.4171C96.4934 25.4171 96.0693 25.8403 96.0693 26.3624C96.0693 26.8846 96.4934 27.3078 97.0165 27.3078Z" fill="white"/>
<path d="M93.4325 19.4592C93.6513 19.2408 93.513 18.7221 93.1263 18.1343C93.0112 17.9597 93.0112 17.7343 93.1263 17.5597C93.513 16.9719 93.6513 16.4532 93.4325 16.2348C93.2138 16.0165 92.694 16.1545 92.1052 16.5405C91.9302 16.6553 91.7044 16.6553 91.5294 16.5405C90.9405 16.1545 90.4208 16.0165 90.202 16.2348C89.9833 16.4532 90.1215 16.9719 90.5083 17.5597C90.6233 17.7343 90.6233 17.9597 90.5083 18.1343C90.1215 18.7221 89.9833 19.2408 90.202 19.4592C90.4208 19.6775 90.9405 19.5395 91.5294 19.1535C91.7044 19.0387 91.9302 19.0387 92.1052 19.1535C92.694 19.5395 93.2138 19.6775 93.4325 19.4592Z" fill="white"/>
<path d="M4.03379 84.0854C4.28535 84.0854 4.50498 83.7077 4.62135 83.1474C4.65592 82.9811 4.78585 82.8514 4.95254 82.8169C5.51385 82.7007 5.89229 82.4815 5.89229 82.2304C5.89229 81.9794 5.51385 81.7602 4.95254 81.644C4.78585 81.6095 4.65592 81.4798 4.62135 81.3134C4.50498 80.7532 4.28535 80.3755 4.03379 80.3755C3.78223 80.3755 3.5626 80.7532 3.44623 81.3134C3.41167 81.4798 3.28173 81.6095 3.11504 81.644C2.55373 81.7602 2.17529 81.9794 2.17529 82.2304C2.17529 82.4815 2.55373 82.7007 3.11504 82.8169C3.28173 82.8514 3.41167 82.9811 3.44623 83.1474C3.5626 83.7077 3.78223 84.0854 4.03379 84.0854Z" fill="white"/>
<path d="M8.35702 16.0322C9.18603 16.0322 9.85809 15.3615 9.85809 14.534C9.85809 13.7066 9.18603 13.0358 8.35702 13.0358C7.528 13.0358 6.85596 13.7066 6.85596 14.534C6.85596 15.3615 7.528 16.0322 8.35702 16.0322Z" fill="white"/>
<path d="M0.981312 23.0787C1.52328 23.0787 1.96262 22.6402 1.96262 22.0993C1.96262 21.5583 1.52328 21.1198 0.981312 21.1198C0.439348 21.1198 0 21.5583 0 22.0993C0 22.6402 0.439348 23.0787 0.981312 23.0787Z" fill="white"/>
</svg>
