<svg width="23" height="23" viewBox="0 0 23 23" fill="none" xmlns="http://www.w3.org/2000/svg">
<path d="M14.7857 13.9644C14.332 13.9644 13.9642 14.3321 13.9642 14.7858C13.9642 16.1468 12.861 17.2501 11.5 17.2501C10.139 17.2501 9.03568 16.1468 9.03568 14.7858C9.03568 14.3321 8.66791 13.9644 8.21424 13.9644C7.76056 13.9644 7.39279 14.3321 7.39279 14.7858C7.39279 17.0541 9.23162 18.8929 11.4999 18.8929C13.7682 18.8929 15.607 17.0541 15.607 14.7858C15.6071 14.3321 15.2394 13.9644 14.7857 13.9644Z" fill="white"/>
<path d="M15.3664 3.5262L12.0807 0.24052C11.7599 -0.0801735 11.24 -0.0801735 10.9192 0.24052L7.6335 3.52625C7.31834 3.85257 7.32739 4.37258 7.65371 4.68774C7.97205 4.99519 8.4767 4.99519 8.79503 4.68774L10.6786 2.80419V13.9641C10.6786 14.4178 11.0463 14.7856 11.5 14.7856C11.9537 14.7856 12.3214 14.4178 12.3214 13.9641V2.80419L14.205 4.68774C14.359 4.8418 14.5679 4.92839 14.7857 4.92844C15.2394 4.92834 15.607 4.56048 15.6069 4.10685C15.6069 3.88906 15.5204 3.68022 15.3664 3.5262Z" fill="white"/>
<path d="M22.1786 6.57134H14.7857C14.332 6.57134 13.9643 6.9391 13.9643 7.39278C13.9643 7.84646 14.332 8.21422 14.7857 8.21422H17.3239C17.6766 10.2781 19.2933 11.8947 21.3571 12.2474V17.3238C19.2933 17.6765 17.6766 19.2932 17.3239 21.357H5.67608C5.32338 19.2932 3.70673 17.6765 1.64289 17.3238V12.2474C3.70673 11.8946 5.32338 10.278 5.67608 8.21418H8.2143C8.66797 8.21418 9.03574 7.84641 9.03574 7.39273C9.03574 6.93905 8.66797 6.57129 8.2143 6.57129H0.821444C0.367765 6.57134 0 6.9391 0 7.39273V22.1784C0 22.6321 0.367765 22.9999 0.821444 22.9999H22.1786C22.6322 22.9999 23 22.6321 23 22.1784V7.39273C23 6.9391 22.6322 6.57134 22.1786 6.57134ZM1.64284 8.21418H3.9905C3.68993 9.36363 2.79229 10.2613 1.64284 10.5618V8.21418ZM1.64284 21.357V19.0094C2.79229 19.31 3.68993 20.2076 3.9905 21.357H1.64284ZM21.3571 21.357H19.0094C19.31 20.2076 20.2077 19.31 21.3571 19.0094V21.357ZM21.3571 10.5618C20.2077 10.2612 19.31 9.36358 19.0094 8.21413H21.3571V10.5618Z" fill="white"/>
</svg>
